<svg id="Layer_1" data-name="Layer 1" xmlns="http://www.w3.org/2000/svg" viewBox="0 0 256 256"><defs><style>.cls-1{fill:#472f2c;}.cls-2{fill:#eedbcd;}</style></defs><path class="cls-1" d="M256,124.74C256,192.9,196.16,256,128,256S0,192,0,123.85,58.51,0,126.67,0,256,56.58,256,124.74Z"/><path class="cls-2" d="M189.44,96.63a45.94,45.94,0,0,1,8.37-1.19c3.87-.17,6.25.31,7.71-1.4a14.61,14.61,0,0,0,1.78-3.48c.65-1.57.56-2.31,1.33-3.56a8.76,8.76,0,0,1,1.82-2.09c1-.88,2.89-2.58,4-2.06.7.34.77,1.86.89,4.89.1,2.74-.11,3.7.51,5.25a9.05,9.05,0,0,0,2.7,3.67c3.8,3.44,6,3,8.44,5.74,1.21,1.32,2.34,2.58,2.49,4.38.1,1.1-.19,2.32.57,3.78a10.37,10.37,0,0,0,.86,1.21c2,2.83,2.27,3.65,2.35,4a5.36,5.36,0,0,1,.08,1.86,4.94,4.94,0,0,1-1.11,2.44,6.74,6.74,0,0,1-1.43,1.15c-.46.31-.69.41-1.35.85,0,0-.54.36-1,.7-1.3,1-1.35,1.56-2.47,2.47a4.16,4.16,0,0,1-1.85,1,4.5,4.5,0,0,1-2.89-.66c-1.69-.82-1.75-1.39-3-1.94a9.71,9.71,0,0,0-3.6-.43,14.62,14.62,0,0,0-5.56.51,9.92,9.92,0,0,0-2.66,1.49c-1.41,1-4.34,3.06-5.19,5.55-.23.68-.27,1.5,3.67,10.22,1.29,2.86,1.82,3.93,2.66,6.13,1.12,2.91,1.78,5,1.78,5,.92,2.89.76,3,1.34,4.11a21.57,21.57,0,0,0,3,4.11c.58.68,1,1.13,1.22,1.34,2.31,2.41,3.52,4.66,5.33,7.11,3,4.07,4.53,6.1,7.11,6.89,1.39.42,1.66.08,5.89.89,3,.57,3.89.94,4.45,1.74a4.34,4.34,0,0,1,0,4.22,5.48,5.48,0,0,1-4.08,2.63c-1.09.17-1.91,0-5.48-1.3-3.13-1.12-4.7-1.68-5.33-2a25.71,25.71,0,0,1-6.67-5.11c-2.78-2.63-5.66-5.15-8.44-7.78a147.64,147.64,0,0,0-11.84-10.35c-4.87-3.74-7.3-5.61-11.05-7a29,29,0,0,0-12.58-1.62c-2.76.26-4.82.49-7,1.84-2.93,1.84-4.06,4.66-6.22,10.23-.95,2.45-3.34,9.09-3.11,14.88.06,1.69.24.9.89,5.56.18,1.34.31,2.43,1.11,2.89.62.35,1,0,2.22,0a6.22,6.22,0,0,1,4,1.78,3.92,3.92,0,0,1,1.33,2.89,3.41,3.41,0,0,1-1,2.2c-1.11,1.08-2.72,1-4.72.91a15.61,15.61,0,0,1-3.46-.54,12.1,12.1,0,0,1-5.73-3,10.81,10.81,0,0,1-2.37-3.61,13.6,13.6,0,0,1-.75-6.39,110.22,110.22,0,0,0,.29-13.17c-.23-4.27-.73-4.71-.79-9.31,0-2.76-.08-2.87-.29-3.32-1.63-3.6-8.74-2.23-19.43-3.31-12.88-1.3-16-4.65-21.11-1.78-.36.21-2.76,2.73-7.55,7.78-2.4,2.52-4.76,5-7.56,8.44-4.44,5.41-5,7-5.11,8.45a12.19,12.19,0,0,0,1.78,7.11c.94,1.77,2.37,4.46,5.11,5.33,1.71.55,2.1-.12,4.66.45a7.2,7.2,0,0,1,4.45,2.44c.15.2,1.74,2.36.89,4-.18.34-.68,1.09-2.67,1.56-2.62.61-5,.07-7.78-.87-3.23-1.12-5.47-1.84-8.07-3.73s-4.15-4.11-7.48-8.74c-2.39-3.31-3-4.63-3.34-5.77a17,17,0,0,1-.66-6.67c.41-4.64,2.5-5.78,3.78-12.22,1-5,.54-5.57.22-5.78-1.07-.72-3,1.34-6.45,3.33-4.65,2.69-5.88,1.84-15.11,5.11-5.24,1.86-7.87,2.79-10,4.23a30.69,30.69,0,0,0-9.55,10.89c-2.56,4.47-3.86,6.78-3.78,10a12.29,12.29,0,0,1-.45,4.88c-.37,1.11-1.11,3.33-3.11,4a4.45,4.45,0,0,1-3.27-.32A6.52,6.52,0,0,1,22,188.63c-.9-2.82-.29-5.54,2.49-12.91.71-1.9,1.21-3.14,5.85-14,2-4.69,3.05-7.06,4.47-8.43,2.33-2.24,4.17-2.4,7.09-5.57a20.68,20.68,0,0,0,3.26-4.6c2-3.89,1.81-7.47,1.82-10.25.05-10.1.09-18.78,4.7-25.37,1.47-2.11,3.62-4.3,2.9-6.42-.52-1.57-2.13-1.69-4.68-3.36a22.2,22.2,0,0,1-7.33-8.67c-1.45-2.67-2.89-5.33-2.89-8.88,0-4.1,1.91-7,5.55-12.45a35.19,35.19,0,0,1,6.22-7.55A54.93,54.93,0,0,1,56.85,56c3.5-2.33,5.76-3.13,6.08-5.18a3.21,3.21,0,0,0-.6-2.37c-.83-.95-2.27-.89-3.11-.89-3.08,0-8.13-.84-8.89-2.67-.65-1.58,1.83-4.13,3.41-5.33,4.86-3.69,11.05-2,11.41-1.93,6,1.72,8.54,7.08,9,8.15a14.64,14.64,0,0,1,1.33,5,15,15,0,0,1-3.26,9.78c-1.17,1.55-2.46,2.57-5,4.59-4.12,3.23-4.88,2.92-7,4.89-1.31,1.23-5.5,5.18-4.89,9.77.45,3.39,3.28,5.51,6.22,7.71a24.45,24.45,0,0,0,8.6,4,31.4,31.4,0,0,0,8.44.74c2.13,0,6.51.58,15.26,1.7,9.5,1.22,10.28,1.66,23.7,3.63,8.38,1.23,12.65,1.85,16.6,2.08,8.06.46,13.22.75,19.48-.82,9.21-2.31,11.55-3.11,11.55-3.11a29.61,29.61,0,0,1,5.11-1.33,21.26,21.26,0,0,1,6.45-.22,19.38,19.38,0,0,1,6.44,2"/></svg>