<svg id="Layer_1" data-name="Layer 1" xmlns="http://www.w3.org/2000/svg" viewBox="0 0 74.8 54.4"><path d="M58.06,25.6A15.53,15.53,0,0,1,61,25.19c1.33-.06,2.15.11,2.66-.48a5.18,5.18,0,0,0,.61-1.21,8.46,8.46,0,0,1,.46-1.22,3.07,3.07,0,0,1,.63-.73c.34-.3,1-.89,1.37-.71s.26.65.3,1.69a5.13,5.13,0,0,0,.18,1.81,3.52,3.52,0,0,0,.45.78,3.74,3.74,0,0,0,.48.49c1.31,1.19,2.06,1,2.92,2a2.64,2.64,0,0,1,.86,1.51,2.8,2.8,0,0,0,.19,1.31,4.72,4.72,0,0,0,.3.42,4,4,0,0,1,.81,1.4,1.79,1.79,0,0,1,0,.63,1.68,1.68,0,0,1-.38.85,2.2,2.2,0,0,1-.5.4c-.15.1-.24.14-.46.29,0,0-.19.12-.34.24-.45.34-.47.54-.86.85a1.43,1.43,0,0,1-.63.37,1.56,1.56,0,0,1-1-.23c-.59-.28-.61-.48-1-.67a3.32,3.32,0,0,0-1.25-.15,5,5,0,0,0-1.91.18,3.27,3.27,0,0,0-.93.51,4.79,4.79,0,0,0-1.79,1.92c-.08.23-.09.52,1.27,3.53.44,1,.63,1.35.92,2.11.39,1,.61,1.74.61,1.74a8.33,8.33,0,0,0,.47,1.42,7.57,7.57,0,0,0,1,1.42c.2.23.35.39.42.46a20.89,20.89,0,0,1,1.84,2.45c1,1.41,1.57,2.11,2.46,2.38.48.15.57,0,2,.31,1,.2,1.35.32,1.54.6a1.51,1.51,0,0,1,0,1.46,1.92,1.92,0,0,1-1.41.91c-.38,0-.66,0-1.89-.45-1.08-.39-1.62-.58-1.84-.69a9,9,0,0,1-2.3-1.77c-1-.91-2-1.78-2.92-2.68A50.36,50.36,0,0,0,60.26,47a13.85,13.85,0,0,0-3.81-2.41,10.11,10.11,0,0,0-4.35-.56,5,5,0,0,0-2.41.64c-1,.63-1.4,1.61-2.15,3.53a14.47,14.47,0,0,0-1.07,5.14c0,.58.08.31.31,1.92.06.46.11.84.38,1s.36,0,.77,0a2.21,2.21,0,0,1,1.38.62,1.38,1.38,0,0,1,.46,1,1.21,1.21,0,0,1-.34.76c-.38.37-.94.34-1.63.31a5.31,5.31,0,0,1-1.19-.19,4.13,4.13,0,0,1-2-1,3.7,3.7,0,0,1-.82-1.24,4.71,4.71,0,0,1-.26-2.21,38.64,38.64,0,0,0,.1-4.55c-.08-1.47-.25-1.63-.27-3.21,0-1,0-1-.1-1.15-.56-1.24-3-.77-6.71-1.14-4.45-.45-5.54-1.61-7.29-.62-.12.07-1,.95-2.61,2.69-.82.87-1.64,1.74-2.61,2.91-1.53,1.87-1.71,2.41-1.76,2.92a4.24,4.24,0,0,0,.61,2.46,3.4,3.4,0,0,0,1.77,1.84c.59.19.72,0,1.61.15a2.51,2.51,0,0,1,1.53.85c.06.07.6.81.31,1.38-.06.11-.24.37-.92.53a4.6,4.6,0,0,1-2.69-.3,9.32,9.32,0,0,1-2.78-1.28,12.32,12.32,0,0,1-2.59-3,7,7,0,0,1-1.15-2,5.81,5.81,0,0,1-.23-2.3c.14-1.6.87-2,1.31-4.22.33-1.71.18-1.92.07-2-.37-.25-1,.46-2.22,1.15-1.61.93-2,.63-5.22,1.76a15.87,15.87,0,0,0-3.45,1.46A10.6,10.6,0,0,0,5,52.38c-.89,1.55-1.34,2.34-1.31,3.45a4.28,4.28,0,0,1-.15,1.69A2,2,0,0,1,2.42,58.9a1.53,1.53,0,0,1-1.13-.11A2.3,2.3,0,0,1,.23,57.37c-.31-1-.09-1.91.86-4.46.25-.65.42-1.08,2-4.83a9.44,9.44,0,0,1,1.54-2.91c.8-.77,1.44-.83,2.45-1.92a7.13,7.13,0,0,0,1.12-1.59,7.3,7.3,0,0,0,.63-3.54c0-3.49,0-6.48,1.62-8.76.51-.73,1.25-1.48,1-2.22-.19-.54-.74-.58-1.62-1.16a7.66,7.66,0,0,1-2.53-3,6.18,6.18,0,0,1-1-3.07c0-1.41.66-2.4,1.92-4.29A11.61,11.61,0,0,1,10.4,13a19.83,19.83,0,0,1,1.87-1.46c1.21-.81,2-1.08,2.1-1.79A1.07,1.07,0,0,0,14.16,9a1.35,1.35,0,0,0-1.07-.31c-1.06,0-2.81-.29-3.07-.92s.63-1.43,1.18-1.84a4.89,4.89,0,0,1,3.94-.67A5.14,5.14,0,0,1,18.26,8a5,5,0,0,1,.46,1.74,5.13,5.13,0,0,1-1.13,3.37,8.56,8.56,0,0,1-1.74,1.59c-1.42,1.12-1.68,1-2.4,1.69-.45.42-1.9,1.79-1.69,3.37.16,1.17,1.13,1.9,2.15,2.66a8.28,8.28,0,0,0,3,1.39,10.94,10.94,0,0,0,2.91.25c.74,0,2.25.2,5.27.59,3.28.42,3.55.57,8.19,1.25,2.89.43,4.36.64,5.73.72a20.84,20.84,0,0,0,6.72-.28c3.18-.8,4-1.08,4-1.08a11.08,11.08,0,0,1,1.77-.46,7.25,7.25,0,0,1,2.22-.07,6.62,6.62,0,0,1,2.23.69" transform="translate(-0.1 -5.06)"/></svg>